<svg id="Capa_1" data-name="Capa 1" xmlns="http://www.w3.org/2000/svg" viewBox="0 0 572 294.5"><defs><style>.cls-1{fill:none;}.cls-2{fill:#fff;}</style></defs><rect class="cls-1" width="572" height="294.5"/><polygon class="cls-2" points="193.48 217.13 205.01 217.13 198.56 253.6 207.31 253.6 213.76 217.13 225.23 217.13 226.47 210.31 194.72 210.31 193.48 217.13"/><path class="cls-2" d="M620.8,702.58a19.84,19.84,0,0,0-9.7-2.3,25.91,25.91,0,0,0-13.18,3.38,24.16,24.16,0,0,0-9.18,9.34,27.05,27.05,0,0,0-3.32,13.39,19.12,19.12,0,0,0,2.29,9.46,16.37,16.37,0,0,0,6.49,6.45,19.51,19.51,0,0,0,9.64,2.33,26.22,26.22,0,0,0,13.27-3.38,23.89,23.89,0,0,0,9.18-9.34,27.51,27.51,0,0,0,3.29-13.52,19,19,0,0,0-2.3-9.39A16.15,16.15,0,0,0,620.8,702.58Zm-2,25.33a15.82,15.82,0,0,1-5.52,6.36,14.59,14.59,0,0,1-8.22,2.36c-3.43,0-6.09-1-8-3a11.12,11.12,0,0,1-2.82-8,19.4,19.4,0,0,1,2-8.68,15.72,15.72,0,0,1,5.52-6.33,14.49,14.49,0,0,1,8.16-2.36c3.43,0,6.1,1,8,2.92a11,11,0,0,1,2.85,8A19.59,19.59,0,0,1,618.82,727.91Z" transform="translate(-352.25 -490.59)"/><path class="cls-2" d="M667.53,727.63a11.19,11.19,0,0,1-3.5,6.73,10.24,10.24,0,0,1-6.92,2.33,7.93,7.93,0,0,1-5.45-1.71,6.21,6.21,0,0,1-1.93-4.93,21.77,21.77,0,0,1,.25-2.42l4.71-26.73H646l-4.71,26.73a21.16,21.16,0,0,0-.37,3.79q0,6.39,4.06,9.8t10.63,3.41a22.88,22.88,0,0,0,9.28-1.89,19.3,19.3,0,0,0,7.35-5.71,20.73,20.73,0,0,0,4-9.4L681,700.9h-8.74Z" transform="translate(-352.25 -490.59)"/><path class="cls-2" d="M721.86,703.91c-2.28-2-5.62-3-10.05-3H695.56l-7.69,43.29h8.75l3-16.87h4.16l6.45,16.87h10.11l-7.26-17.55a16.33,16.33,0,0,0,8.22-4.8,15.32,15.32,0,0,0,3.81-7.66,15.65,15.65,0,0,0,.19-2.42A10,10,0,0,0,721.86,703.91Zm-5.71,10.45a7.84,7.84,0,0,1-2.63,4.78,8.38,8.38,0,0,1-5.55,1.73h-7.26l2.3-13h7.25a6.77,6.77,0,0,1,4.53,1.3,4.62,4.62,0,0,1,1.49,3.66A14.87,14.87,0,0,1,716.15,714.36Z" transform="translate(-352.25 -490.59)"/><path class="cls-2" d="M504.64,531.06H419.52l-45.6,150h48.64l13-42.86h36.48q60.81,0,77.1-53.57T504.64,531.06Zm-4.13,53.57q-3.28,10.73-15.45,10.72H448.58l6.57-21.43h36.48Q503.8,573.92,500.51,584.63Z" transform="translate(-352.25 -490.59)"/><path class="cls-2" d="M663.3,531.06H578.18l-45.6,150h48.64l13-42.86h36.48q26.87,0,45-10.47a6.62,6.62,0,0,1-1.24-1.24c-2.78-3.67-6.51-4.71-10.63-5.37a36.79,36.79,0,0,1-4.28-1,3.48,3.48,0,0,0-3.44.75c-16.85,13-44.89,13.14-59.47-9.38a1.49,1.49,0,0,0-2.09-.76c-2.58.9-5,.53-6.53-1.9-4.28-6.64-5.31-9.84-.93-16.69a5.05,5.05,0,0,0,.92-1.95c.49-4.08.89-8.17,1.34-12.47-1.74-.57-2.32-2.26-2.32-4.15a62.59,62.59,0,0,1,.31-8.56c.81-5.87,3.09-7.85,9-8.54a2.49,2.49,0,0,0,1.77-1.14c1.57-3.87,4.51-6.52,7.69-9,4.14-3.25,8.6-3.59,13.36-1.66l6.56,2.63c3.11-3.54,5.84-6.89,8.84-10,4.22-4.37,7.66-4.16,11.63.42a16.11,16.11,0,0,1,1.39,1.7c3.31,5,6.59,10,9.89,15a10.79,10.79,0,0,0,1.41,1.92A59.29,59.29,0,0,1,670,571.47a5.2,5.2,0,0,0,2.52,2.2c3.35,1.28,5.18,3.58,5,7.14a36.18,36.18,0,0,1-1.26,8.45c-.79,2.53-.4,4,1.58,5.8,1.65,1.46,3.08,2.17,5.26,1.71a9.24,9.24,0,0,1,7.73,1.81,5.47,5.47,0,0,0,2.84,1c2.57.17,5.13.4,7.32,1.71a8.88,8.88,0,0,1,.84.57c1.86,1.43,3.6,1,5.77.51l-2.36-1.89a7.07,7.07,0,0,1-2.36-2.93,4.78,4.78,0,0,1,0-3.3,3.27,3.27,0,0,0-.21-1.69c-.55-2-1.14-4-1.74-6l-3.59-.2,2.66-3.72-11.26-3.48.1-.69a11.82,11.82,0,0,1,2.37-.8c3.5-.4,7-.81,10.53-1,1.54-.08,2.14-.46,2.38-2.08a45.39,45.39,0,0,1,1.77-7,6.25,6.25,0,0,1,4.73-4.45l.63-.14Q710.28,531.08,663.3,531.06Z" transform="translate(-352.25 -490.59)"/><path class="cls-2" d="M853.94,531.06l-74.42,105-10.7-105H720.18l3,29.78a15.85,15.85,0,0,1,10,3.95c3.51,2.81,7,5.52,9.43,9.4,1.55,2.5,2.28,5.07,1,7.95-1,2.26-1.75,4.61-2.83,6.82-.65,1.34-1,2.34.35,3.46a10.83,10.83,0,0,1,1.61,2.38l-2,.34v5l-3.59-1.59c-.26,1-.51,2-.81,3.13l-1.8-1.67c-1.08,3.07-2,5.78-3,8.51-1.33-.72-1.68-3.13-3.59-1.41l-.21-.21c-2.37-2.35-2.46-2.31-5.33-.82.87.57,1.68,1.14,2.52,1.66,1.39.86,1.75,1.89.71,3.29-.78,1.06-1.47,2.18-2.25,3.34a20.62,20.62,0,0,1,2.75,2.14c1,1.06,2,2.11,2.9,3.26a10.55,10.55,0,0,1,1.17,1.81c2.22,4.39,4.08,9,6.06,13.49a4.24,4.24,0,0,1,.63,2.25c-.57,2.4,1,3.83,2.21,5.74,2-1.3,3.94-2.44,5.71-3.81s1.55-2.16.09-3.6c-.46-.45-1.16-1.05-1.13-1.54a20,20,0,0,1,.87-5.46c.21-.6,1.76-.73,2.69-1.09a6.25,6.25,0,0,0,.69-.41c2.64-1.5,8.62,1.41,9.05,4.42a2.83,2.83,0,0,1-.05,1.39,21.21,21.21,0,0,1-2,4.76c-2.91,4.12-5.94,8.18-9.13,12.09a26.27,26.27,0,0,1-8.9,7.29,4.49,4.49,0,0,1-4.14.19l2.41,23.81h60.8l106.4-150Z" transform="translate(-352.25 -490.59)"/><path class="cls-2" d="M641.29,551.28a2.65,2.65,0,0,0-2.13.69,12.77,12.77,0,0,1-7,4c-4.19.69-6.11-.61-7-4.75a4.35,4.35,0,0,0-.37-.8c-1.22.24-2.39.48-3.56.69-5.37.93-9.44,3.42-11.69,8.73-1.84,4.33-4.93,7.21-10.18,5.77a68.93,68.93,0,0,1-2.06,8.43c-.56,1.48-1.85,3.25-3.22,3.74-2.3.82-2.77,2.31-3,4.27-.12.93-.31,1.84-.42,2.77a43.38,43.38,0,0,0,.14,12.34c3.47-3.83,7-7.8,10.61-11.63a4.89,4.89,0,0,0,1.58-3.2c.51-5.76,2.91-10.37,8.51-12.73,5.84-2.46,11.28-2,16.25,2.27a3.25,3.25,0,0,0,2.51.37c11.69-2.84,23.61-2,35.3-2.54C659.8,560.83,652,554.11,641.29,551.28Z" transform="translate(-352.25 -490.59)"/><path class="cls-2" d="M629.54,574.61a2.65,2.65,0,0,1-3-.72c-4-3.62-8.47-5-13.59-2.64-5.35,2.41-8.35,6.5-8.27,12.49a2.75,2.75,0,0,1-1.34,2.59,33.1,33.1,0,0,0-10.25,11.78c-1.5,2.89-1.64,5.33.7,8A36.3,36.3,0,0,1,607,590.86c2.52,2.78,5.33,4.85,9,5.27,7.75.87,13.77-4.69,14.18-13.23a2.16,2.16,0,0,1,2-2.37,78.37,78.37,0,0,1,20.81-2c.77,0,1.54,0,2.27,0,.39-2.13.73-4,1.08-5.88-.1-.08-.2-.2-.31-.22a9.34,9.34,0,0,0-1.38-.19C646.18,571.81,637.74,572.11,629.54,574.61Zm-11.75,17.64a9.6,9.6,0,1,1,9.46-9.62A9.6,9.6,0,0,1,617.79,592.25Z" transform="translate(-352.25 -490.59)"/><path class="cls-2" d="M618.36,587.93a5,5,0,0,1-5.25-2.58,31.6,31.6,0,0,1-1.82-5.41,6.81,6.81,0,0,0,1.94,8.46,7.21,7.21,0,0,0,9.2-.11,7,7,0,0,0,1.39-9.23C624,584.33,622,587.52,618.36,587.93Z" transform="translate(-352.25 -490.59)"/></svg>