<svg id="Capa_1" data-name="Capa 1" xmlns="http://www.w3.org/2000/svg" viewBox="0 0 850 850"><defs><style>.cls-1{fill:none;}.cls-2{fill:#fff;}</style></defs><rect class="cls-1" width="850" height="850"/><path class="cls-2" d="M368.41,290.65a31,31,0,1,0,30.84,31A31.25,31.25,0,0,0,368.41,290.65Zm15.25,49.27a23.34,23.34,0,0,1-29.76.33c-8.63-6.93-11-18.68-6.25-27.33,1.75,5.46,2.89,12,5.87,17.48,3.37,6.23,9.67,9.15,17,8.33,11.65-1.32,18.09-11.61,17.66-28.66C394.36,320.71,392.34,332.52,383.66,339.92Z" transform="translate(-115 -115)"/><path class="cls-2" d="M714.11,600.16c-4.83-19.5.29-37.74,7.78-56.23,5.53,5.91,10.13,11.31,15.25,16.17s10.77,5.27,17.26,2.14c11.55-5.58,20.88-13.85,28.79-23.56,10.31-12.66,20.11-25.76,29.52-39.1,3.14-4.45,4.54-10.17,6.51-15.39a9.47,9.47,0,0,0,.16-4.47c-1.4-9.75-20.74-19.16-29.29-14.29a18.38,18.38,0,0,1-2.22,1.3c-3,1.18-8,1.58-8.7,3.53-1.95,5.55-2.45,11.69-2.81,17.65-.1,1.59,2.16,3.53,3.64,5,4.72,4.65,5,7.54-.27,11.63-5.74,4.44-12.06,8.11-18.46,12.32-4-6.18-9-10.8-7.13-18.55.51-2.15-1-5-2.07-7.29-6.38-14.61-12.39-29.41-19.57-43.62-3.09-6.13-8.45-11.2-13.18-16.39-2.41-2.65-5.7-4.49-8.88-6.92,2.52-3.75,4.77-7.37,7.29-10.79,3.34-4.53,2.2-7.85-2.31-10.63-2.72-1.67-5.34-3.51-8.13-5.36,9.55-5,9.55-5,17.89,3.32,6.17-5.57,7.33,2.24,11.6,4.57,3.09-8.84,6.16-17.59,9.64-27.53l5.82,5.41c1-3.78,1.78-6.82,2.64-10.11l11.59,5.12V362l6.41-1.1c-1.92-2.92-3.07-5.88-5.21-7.68-4.29-3.62-3.22-6.85-1.12-11.17,3.46-7.15,5.94-14.77,9.12-22.06,4.06-9.31,1.7-17.64-3.31-25.71-7.78-12.53-19.15-21.3-30.47-30.37-13.27-10.63-27.37-15.46-44.23-11.33-9.59,2.35-19.38,3.9-29,6.19a20.29,20.29,0,0,0-15.28,14.41c-2.3,7.37-4.61,14.85-5.73,22.45-.77,5.24-2.71,6.48-7.68,6.75-11.38.61-22.73,1.93-34.06,3.23-2.62.3-5.11,1.68-7.66,2.57-.11.75-.22,1.5-.32,2.25l36.43,11.25-8.62,12,11.62.66c1.92,6.59,3.84,13,5.61,19.4.49,1.77,1.21,3.87.69,5.45-2.93,8.89,1.05,14.95,7.62,20.14,2.33,1.85,4.63,3.73,7.63,6.13-7,1.73-12.65,3-18.66-1.67-7.59-5.87-17-6.75-26.37-7.34a17.86,17.86,0,0,1-9.18-3.3,29.78,29.78,0,0,0-25-5.86c-7.06,1.46-11.68-.82-17-5.52-6.41-5.67-7.67-10.59-5.11-18.75,2.72-8.7,3.5-18.16,4.06-27.35.71-11.5-5.2-18.92-16-23.07a16.91,16.91,0,0,1-8.17-7.1c-9.71-17.93-20.9-34.67-35.79-48.78-1.83-1.73-3.12-4.06-4.54-6.2-10.67-16.17-21.28-32.37-32-48.51a56.34,56.34,0,0,0-4.5-5.51c-12.84-14.8-24-15.48-37.6-1.37-9.7,10-18.54,20.87-28.6,32.3C388.31,205,380.79,202,373.28,199c-15.4-6.23-29.81-5.13-43.19,5.35-10.28,8-19.78,16.59-24.87,29.13-.71,1.75-3.64,3.43-5.72,3.67-19.13,2.23-26.51,8.63-29.13,27.6-1.25,9.11-1,18.46-1,27.69,0,6.11,1.88,11.57,7.51,13.42-1.46,13.9-2.75,27.12-4.35,40.31-.26,2.19-1.71,4.34-3,6.29-14.16,22.14-10.85,32.51,3,54,5.08,7.86,12.75,9.06,21.11,6.13,3.29-1.15,4.89-.39,6.76,2.48,47.12,72.79,137.77,72.28,192.24,30.31,3.65-2.81,6.83-3.68,11.12-2.42A117.14,117.14,0,0,0,517.67,446c13.3,2.16,25.36,5.5,34.35,17.39,4.6,6.1,13.17,9.2,20.18,13.82-3.85,18.45-8.75,37.26-11.51,56.38s-4.86,38.63-6.81,58q-7.65-.06-15.39,0c-170.81.16-308.15,26.28-307,30.29,1.06,3.68,120.88-12.26,307-12.5,190.94-.23,308.92,16.25,310,12.5C849.22,619.36,796,608.2,714.11,600.16ZM489.84,308.3c-2.34,0-4.83,0-7.31,0-22.68-.4-45.18.92-67.29,6.54-4.36,1.11-6.16,2.71-6.39,7.64-1.33,27.62-20.79,45.61-45.84,42.78-12-1.36-21.1-8-29.25-17-18.59,12.67-33.22,28.52-42.63,49.47-7.57-8.8-7.11-16.68-2.27-26A106.94,106.94,0,0,1,322,333.58c3.06-2.21,4.37-4.34,4.32-8.37-.24-19.37,9.44-32.59,26.74-40.41,16.55-7.48,31.15-3.14,44,8.56,3.11,2.85,5.56,3.57,9.62,2.33,26.53-8.11,53.78-9.06,81.23-7.74a35.54,35.54,0,0,1,4.47.6c.37.07.67.46,1,.71C492.23,295.34,491.11,301.4,489.84,308.3Zm-81-20.42c-2.52.61-6.33.34-8.12-1.19-16-13.71-33.66-15.29-52.52-7.34-18.09,7.62-25.88,22.55-27.51,41.16-.4,4.47-2.13,7.2-5.13,10.34-11.78,12.38-23.07,25.22-34.28,37.6a140.34,140.34,0,0,1-.47-39.9c.36-3,1-5.95,1.37-8.94.81-6.33,2.32-11.17,9.76-13.81,4.43-1.58,8.59-7.31,10.4-12.11,3.15-8.33,4.38-17.38,6.66-27.22,17,4.63,27-4.67,32.92-18.68,7.28-17.15,20.42-25.22,37.81-28.23,3.79-.65,7.55-1.44,11.51-2.2a15.51,15.51,0,0,1,1.19,2.58c2.9,13.37,9.11,17.57,22.67,15.34,9.14-1.49,16.23-6.38,22.65-12.79,1.56-1.55,4.87-2.77,6.87-2.25,34.72,9.15,59.87,30.9,78.35,59.43C485.18,281.59,446.65,278.72,408.83,287.88Z" transform="translate(-115 -115)"/><path class="cls-2" d="M303.45,783.77l-15.18,50H231.5l53.22-175.06h99.35q70.95,0,51.94,62.52t-90,62.52Zm22.85-75-7.66,25h42.58q14.19,0,18-12.51t-10.36-12.5Z" transform="translate(-115 -115)"/><path class="cls-2" d="M488.62,783.77l-15.18,50H416.67l53.22-175.06h99.34q71,0,51.95,62.52t-90,62.52Zm22.85-75-7.66,25h42.58q14.19,0,18-12.51t-10.36-12.5Z" transform="translate(-115 -115)"/><path class="cls-2" d="M653.36,833.79,635.62,658.73h56.77l12.49,122.54,86.85-122.54H848.5L724.32,833.79Z" transform="translate(-115 -115)"/><path class="cls-2" d="M322.51,865.88l-1.4,7.66H308.22l-7.24,41h-9.83l7.25-41h-13l1.39-7.66Z" transform="translate(-115 -115)"/><path class="cls-2" d="M339.89,912.39a18.33,18.33,0,0,1-7.28-7.25A21.48,21.48,0,0,1,330,894.51a30.28,30.28,0,0,1,3.73-15A27,27,0,0,1,344.07,869a29.11,29.11,0,0,1,14.81-3.8,22.29,22.29,0,0,1,10.9,2.58,18.11,18.11,0,0,1,7.28,7.21,21.34,21.34,0,0,1,2.58,10.56A30.94,30.94,0,0,1,376,900.72a26.86,26.86,0,0,1-10.32,10.48,29.42,29.42,0,0,1-14.91,3.8A22,22,0,0,1,339.89,912.39Zm21.46-9a17.58,17.58,0,0,0,6.2-7.14,22,22,0,0,0,2.2-9.79q0-5.71-3.21-9t-9-3.27a16.19,16.19,0,0,0-9.16,2.65,17.67,17.67,0,0,0-6.2,7.1,21.88,21.88,0,0,0-2.2,9.76q0,5.72,3.17,9t9,3.31A16.32,16.32,0,0,0,361.35,903.36Z" transform="translate(-115 -115)"/><path class="cls-2" d="M407.86,865.88l-5.3,30a24.18,24.18,0,0,0-.28,2.72,7,7,0,0,0,2.16,5.53,9,9,0,0,0,6.14,1.92,11.52,11.52,0,0,0,7.77-2.61,12.55,12.55,0,0,0,3.93-7.56l5.3-30h9.82l-5.29,30a23.19,23.19,0,0,1-4.53,10.55,21.41,21.41,0,0,1-8.26,6.41A25.59,25.59,0,0,1,408.9,915q-7.38,0-11.95-3.83t-4.56-11a23.75,23.75,0,0,1,.42-4.25l5.29-30Z" transform="translate(-115 -115)"/><path class="cls-2" d="M483.32,869.26a11.2,11.2,0,0,1,3.83,8.81,18.3,18.3,0,0,1-.21,2.72,17.31,17.31,0,0,1-4.28,8.6,18.26,18.26,0,0,1-9.24,5.4l8.16,19.72H470.22l-7.25-19H458.3l-3.34,19h-9.83l8.64-48.63H472Q479.49,865.88,483.32,869.26Zm-6.27,10.07a5.21,5.21,0,0,0-1.67-4.12,7.62,7.62,0,0,0-5.09-1.46h-8.15l-2.58,14.56h8.15a9.43,9.43,0,0,0,6.24-1.95,8.83,8.83,0,0,0,3-5.36C477,880.16,477.05,879.6,477.05,879.33Z" transform="translate(-115 -115)"/><path class="cls-2" d="M526.79,903.22q7.74-5.64,12.16-9.23a56.61,56.61,0,0,0,7.67-7.42,16.05,16.05,0,0,0,3.87-7.45,11.05,11.05,0,0,0,.2-2,5.21,5.21,0,0,0-1.42-3.91,6.09,6.09,0,0,0-4.36-1.39,7.6,7.6,0,0,0-5.64,2.26,12.79,12.79,0,0,0-3.14,6.45h-9.41q1.68-8.35,7.18-12.68a20.07,20.07,0,0,1,12.75-4.32q6.9,0,10.45,3.24a11.08,11.08,0,0,1,3.56,8.6,16.58,16.58,0,0,1-.28,3.14,22.48,22.48,0,0,1-4.67,10,55.2,55.2,0,0,1-8.15,8.47q-4.39,3.66-11.36,8.74h20.56l-1.47,8.09H520.94l1.26-7.25Z" transform="translate(-115 -115)"/><path class="cls-2" d="M580.41,870.62q5.54-6.76,15.64-6.76,15.19,0,15.19,16.44a49.8,49.8,0,0,1-.83,8.78q-4.47,25.29-23.28,25.29-15.18,0-15.18-16.51a48.87,48.87,0,0,1,.83-8.78Q574.87,877.38,580.41,870.62Zm21.22,10.73a10.29,10.29,0,0,0-1.64-6.2q-1.63-2.24-5.54-2.24-5.58,0-8.15,4.25t-3.9,11.92a45.23,45.23,0,0,0-.84,7.73,10.47,10.47,0,0,0,1.64,6.28q1.63,2.22,5.54,2.22a8.9,8.9,0,0,0,6.27-2.16,13.7,13.7,0,0,0,3.62-5.6,51.77,51.77,0,0,0,2.16-8.47A45.23,45.23,0,0,0,601.63,881.35Z" transform="translate(-115 -115)"/><path class="cls-2" d="M625.74,903.22q7.72-5.64,12.15-9.23a56.61,56.61,0,0,0,7.67-7.42,16.05,16.05,0,0,0,3.87-7.45,10.24,10.24,0,0,0,.2-2,5.21,5.21,0,0,0-1.42-3.91,6.09,6.09,0,0,0-4.36-1.39,7.61,7.61,0,0,0-5.64,2.26,12.87,12.87,0,0,0-3.14,6.45h-9.4q1.67-8.35,7.17-12.68a20.07,20.07,0,0,1,12.75-4.32q6.9,0,10.46,3.24a11.11,11.11,0,0,1,3.55,8.6,16.58,16.58,0,0,1-.28,3.14,22.38,22.38,0,0,1-4.67,10A55.2,55.2,0,0,1,646.5,897q-4.39,3.66-11.36,8.74H655.7l-1.47,8.09H619.88l1.26-7.25Z" transform="translate(-115 -115)"/><path class="cls-2" d="M668.59,904.62l1.32-7.67,28.57-32.61h11.29l-5.51,31.78h6.06l-1.46,8.5h-6.13l-1.81,9.89h-9.69l1.74-9.89Zm30.24-29.82-18,21.32h14.21Z" transform="translate(-115 -115)"/></svg>